<svg id="e547938f-82f5-44e4-b157-d028021b2880" xmlns="http://www.w3.org/2000/svg" viewBox="0 0 808.09 683.73"><defs><style>.cls-1{fill:#3f3d56;}.cls-2{fill:#74c3eb;}.cls-3{fill:#f2f2f2;}.cls-4{opacity:0.2;isolation:isolate;}.cls-5{fill:#d0cde1;}</style></defs><title>undraw_personal_notebook_sobb</title><path class="cls-1" d="M576.37,68.86H149.64v614H576.37a21.27,21.27,0,0,0,21.27-21.27h0V90.13a21.27,21.27,0,0,0-21.27-21.27Zm-403.73,603a11,11,0,1,1,11-11,11,11,0,0,1-11,11Zm0-38a11,11,0,1,1,11-11,11,11,0,0,1-11,11Zm0-38a11,11,0,1,1,11-11,11,11,0,0,1-11,11Zm0-38a11,11,0,1,1,11-11,11,11,0,0,1-11,11Zm0-38a11,11,0,1,1,11-11,11,11,0,0,1-11,11Zm0-38a11,11,0,1,1,11-11,11,11,0,0,1-11,11Zm0-38a11,11,0,1,1,11-11,11,11,0,0,1-11,11Zm0-38a11,11,0,1,1,11-11,11,11,0,0,1-11,11Zm0-38a11,11,0,1,1,11-11,11,11,0,0,1-11,11Zm0-38a11,11,0,1,1,11-11,11,11,0,0,1-11,11Zm0-38a11,11,0,1,1,11-11,11,11,0,0,1-11,11Zm0-38a11,11,0,1,1,11-11,11,11,0,0,1-11,11Zm0-38a11,11,0,1,1,11-11,11,11,0,0,1-11,11Zm0-38a11,11,0,1,1,11-11,11,11,0,0,1-11,11Zm0-38a11,11,0,1,1,11-11,11,11,0,0,1-11,11Zm0-38a11,11,0,1,1,11-11,11,11,0,0,1-11,11Z"/><path d="M151.64,469.86c-4.34,0-26-.22-26-4.5,0-3.92,18.36-4.43,24-4.49l0,2c-12.18.13-20.06,1.46-21.79,2.49,1.84,1.09,10.62,2.5,23.78,2.5,12.62,0,21.21-1.3,23.51-2.37-1.05-.37-3.7-1-10.36-1.8l.24-2c11.7,1.4,12.61,2.4,12.61,3.65C177.64,469.64,156,469.86,151.64,469.86Z"/><path d="M151.64,478.86c-4.34,0-26-.22-26-4.5,0-3.92,18.36-4.43,24-4.49l0,2c-12.18.13-20.06,1.46-21.79,2.49,1.84,1.09,10.62,2.5,23.78,2.5,12.31,0,20.78-1.23,23.33-2.29-2.28-.6-7.88-1.26-11.13-1.64l-2.05-.24.24-2,2.05.24c12.22,1.42,13.56,1.95,13.56,3.41C177.64,478.64,156,478.86,151.64,478.86Z"/><path d="M151.64,432.86c-4.34,0-26-.22-26-4.5,0-3.92,18.36-4.43,24-4.49l0,2c-12.18.13-20.06,1.46-21.79,2.49,1.84,1.09,10.62,2.5,23.78,2.5,12.62,0,21.21-1.3,23.51-2.37-1.05-.37-3.7-1-10.36-1.8l.24-2c11.7,1.4,12.61,2.4,12.61,3.65C177.64,432.64,156,432.86,151.64,432.86Z"/><path d="M151.64,441.86c-4.34,0-26-.22-26-4.5,0-3.92,18.36-4.43,24-4.49l0,2c-12.18.13-20.06,1.46-21.79,2.49,1.84,1.09,10.62,2.5,23.78,2.5,12.31,0,20.78-1.23,23.33-2.29-2.28-.6-7.88-1.26-11.13-1.64l-2.05-.24.24-2,2.05.24c12.22,1.42,13.56,1.95,13.56,3.41C177.64,441.64,156,441.86,151.64,441.86Z"/><path d="M151.64,393.86c-4.34,0-26-.22-26-4.5,0-3.92,18.36-4.43,24-4.49l0,2c-12.18.13-20.06,1.46-21.79,2.49,1.84,1.09,10.62,2.5,23.78,2.5,12.62,0,21.21-1.3,23.51-2.37-1.05-.37-3.7-1-10.36-1.8l.24-2c11.7,1.4,12.61,2.4,12.61,3.65C177.64,393.64,156,393.86,151.64,393.86Z"/><path d="M151.64,402.86c-4.34,0-26-.22-26-4.5,0-3.92,18.36-4.43,24-4.49l0,2c-12.18.13-20.06,1.46-21.79,2.49,1.84,1.09,10.62,2.5,23.78,2.5,12.31,0,20.78-1.23,23.33-2.29-2.28-.6-7.88-1.26-11.13-1.64l-2.05-.24.24-2,2.05.24c12.22,1.42,13.56,1.95,13.56,3.41C177.64,402.64,156,402.86,151.64,402.86Z"/><path d="M151.64,355.86c-4.34,0-26-.22-26-4.5,0-3.92,18.36-4.43,24-4.49l0,2c-12.18.13-20.06,1.46-21.79,2.49,1.84,1.09,10.62,2.5,23.78,2.5,12.62,0,21.21-1.3,23.51-2.37-1.05-.37-3.7-1-10.36-1.8l.24-2c11.7,1.4,12.61,2.4,12.61,3.65C177.64,355.64,156,355.86,151.64,355.86Z"/><path d="M151.64,364.86c-4.34,0-26-.22-26-4.5,0-3.92,18.36-4.43,24-4.49l0,2c-12.18.13-20.06,1.46-21.79,2.49,1.84,1.09,10.62,2.5,23.78,2.5,12.31,0,20.78-1.23,23.33-2.29-2.28-.6-7.88-1.26-11.13-1.64l-2.05-.24.24-2,2.05.24c12.22,1.42,13.56,1.95,13.56,3.41C177.64,364.64,156,364.86,151.64,364.86Z"/><path d="M151.64,317.86c-4.34,0-26-.22-26-4.5,0-3.92,18.36-4.43,24-4.49l0,2c-12.18.13-20.06,1.46-21.79,2.49,1.84,1.09,10.62,2.5,23.78,2.5,12.62,0,21.21-1.3,23.51-2.37-1.05-.37-3.7-1-10.36-1.8l.24-2c11.7,1.4,12.61,2.4,12.61,3.65C177.64,317.64,156,317.86,151.64,317.86Z"/><path d="M151.64,326.86c-4.34,0-26-.22-26-4.5,0-3.92,18.36-4.43,24-4.49l0,2c-12.18.13-20.06,1.46-21.79,2.49,1.84,1.09,10.62,2.5,23.78,2.5,12.31,0,20.79-1.23,23.33-2.29-2.28-.6-7.89-1.26-11.14-1.64l-2-.24.24-2,2,.24c12.24,1.42,13.58,1.95,13.58,3.41C177.64,326.64,156,326.86,151.64,326.86Z"/><path d="M151.64,279.86c-4.34,0-26-.22-26-4.5,0-3.92,18.36-4.43,24-4.49l0,2c-12.18.13-20.06,1.46-21.79,2.49,1.84,1.09,10.62,2.5,23.78,2.5,12.62,0,21.21-1.3,23.51-2.37-1.05-.37-3.7-1-10.36-1.8l.24-2c11.7,1.4,12.61,2.4,12.61,3.65C177.64,279.64,156,279.86,151.64,279.86Z"/><path d="M151.64,288.86c-4.34,0-26-.22-26-4.5,0-3.92,18.36-4.43,24-4.49l0,2c-12.18.13-20.06,1.46-21.79,2.49,1.84,1.09,10.62,2.5,23.78,2.5,12.31,0,20.79-1.23,23.33-2.29-2.28-.6-7.89-1.26-11.14-1.64l-2-.24.24-2,2,.24c12.24,1.42,13.58,1.95,13.58,3.41C177.64,288.64,156,288.86,151.64,288.86Z"/><path d="M151.64,241.86c-4.34,0-26-.22-26-4.5,0-3.92,18.36-4.43,24-4.49l0,2c-12.18.13-20.06,1.46-21.79,2.49,1.84,1.09,10.62,2.5,23.78,2.5,12.62,0,21.21-1.3,23.51-2.37-1.05-.37-3.7-1-10.36-1.8l.24-2c11.7,1.4,12.61,2.4,12.61,3.65C177.64,241.64,156,241.86,151.64,241.86Z"/><path d="M151.64,250.86c-4.34,0-26-.22-26-4.5,0-3.92,18.36-4.43,24-4.49l0,2c-12.18.13-20.06,1.46-21.79,2.49,1.84,1.09,10.62,2.5,23.78,2.5,12.31,0,20.79-1.23,23.33-2.29-2.28-.6-7.89-1.26-11.14-1.64l-2-.24.24-2,2,.24c12.24,1.42,13.58,2,13.58,3.41C177.64,250.64,156,250.86,151.64,250.86Z"/><path d="M151.64,203.86c-4.34,0-26-.22-26-4.5,0-3.92,18.36-4.43,24-4.49l0,2c-12.18.13-20.06,1.46-21.79,2.49,1.84,1.09,10.62,2.5,23.78,2.5,12.62,0,21.21-1.3,23.51-2.37-1.05-.37-3.7-1-10.36-1.8l.24-2c11.7,1.4,12.61,2.4,12.61,3.65C177.64,203.64,156,203.86,151.64,203.86Z"/><path d="M151.64,212.86c-4.34,0-26-.22-26-4.5,0-3.92,18.36-4.43,24-4.49l0,2c-12.18.13-20.06,1.46-21.79,2.49,1.84,1.09,10.62,2.5,23.78,2.5,12.31,0,20.79-1.23,23.33-2.29-2.28-.6-7.89-1.26-11.14-1.64l-2-.24.24-2,2,.24c12.24,1.42,13.58,2,13.58,3.41C177.64,212.64,156,212.86,151.64,212.86Z"/><path d="M151.64,165.86c-4.34,0-26-.22-26-4.5,0-3.92,18.36-4.43,24-4.49l0,2c-12.18.13-20.06,1.46-21.79,2.49,1.84,1.09,10.62,2.5,23.78,2.5,12.62,0,21.21-1.3,23.51-2.37-1.05-.37-3.7-1-10.36-1.8l.24-2c11.7,1.4,12.61,2.4,12.61,3.65C177.64,165.64,156,165.86,151.64,165.86Z"/><path d="M151.64,174.86c-4.34,0-26-.22-26-4.5,0-3.92,18.36-4.43,24-4.49l0,2c-12.18.13-20.06,1.46-21.79,2.49,1.84,1.09,10.62,2.5,23.78,2.5,12.31,0,20.79-1.23,23.33-2.29-2.28-.6-7.89-1.26-11.14-1.64l-2-.24.24-2,2,.24c12.24,1.42,13.58,2,13.58,3.41C177.64,174.64,156,174.86,151.64,174.86Z"/><path d="M151.64,127.86c-4.34,0-26-.22-26-4.5,0-3.92,18.36-4.43,24-4.49l0,2c-12.18.13-20.06,1.46-21.79,2.49,1.84,1.09,10.62,2.5,23.78,2.5,12.62,0,21.21-1.3,23.51-2.37-1.05-.37-3.7-1-10.36-1.8l.24-2c11.7,1.4,12.61,2.4,12.61,3.65C177.64,127.64,156,127.86,151.64,127.86Z"/><path d="M151.64,136.86c-4.34,0-26-.22-26-4.5,0-3.92,18.36-4.43,24-4.49l0,2c-12.18.13-20.06,1.46-21.79,2.49,1.84,1.09,10.62,2.5,23.78,2.5,12.31,0,20.79-1.23,23.33-2.29-2.28-.6-7.89-1.26-11.14-1.64l-2-.24.24-2,2,.24c12.24,1.42,13.58,2,13.58,3.41C177.64,136.64,156,136.86,151.64,136.86Z"/><path d="M151.64,89.86c-4.34,0-26-.22-26-4.5,0-3.92,18.36-4.43,24-4.49l0,2c-12.18.13-20.06,1.46-21.79,2.49,1.84,1.09,10.62,2.5,23.78,2.5,12.62,0,21.21-1.3,23.51-2.37-1.05-.37-3.7-1-10.36-1.8l.24-2c11.7,1.4,12.61,2.4,12.61,3.65C177.64,89.64,156,89.86,151.64,89.86Z"/><path d="M151.64,98.86c-4.34,0-26-.22-26-4.5,0-3.92,18.36-4.43,24-4.49l0,2c-12.18.13-20.06,1.46-21.79,2.49,1.84,1.09,10.62,2.5,23.78,2.5,12.31,0,20.79-1.23,23.33-2.29-2.28-.6-7.89-1.26-11.14-1.64l-2-.24.24-2,2,.24c12.24,1.42,13.58,2,13.58,3.41C177.64,98.64,156,98.86,151.64,98.86Z"/><path d="M151.64,508.86c-4.34,0-26-.22-26-4.5,0-3.92,18.36-4.43,24-4.49l0,2c-12.18.13-20.06,1.46-21.79,2.49,1.84,1.09,10.62,2.5,23.78,2.5,12.62,0,21.21-1.3,23.51-2.37-1.05-.37-3.7-1-10.36-1.8l.24-2c11.7,1.4,12.61,2.4,12.61,3.65C177.64,508.64,156,508.86,151.64,508.86Z"/><path d="M151.64,517.86c-4.34,0-26-.22-26-4.5,0-3.92,18.36-4.43,24-4.49l0,2c-12.18.13-20.06,1.46-21.79,2.49,1.84,1.09,10.62,2.5,23.78,2.5,12.31,0,20.78-1.23,23.33-2.29-2.28-.6-7.88-1.26-11.13-1.64l-2.05-.24.24-2,2.05.24c12.22,1.42,13.56,1.95,13.56,3.41C177.64,517.64,156,517.86,151.64,517.86Z"/><path d="M151.64,545.86c-4.34,0-26-.22-26-4.5,0-3.92,18.36-4.43,24-4.49l0,2c-12.18.13-20.06,1.46-21.79,2.49,1.84,1.09,10.62,2.5,23.78,2.5,12.62,0,21.21-1.3,23.51-2.37-1.05-.37-3.7-1-10.36-1.8l.24-2c11.7,1.4,12.61,2.4,12.61,3.65C177.64,545.64,156,545.86,151.64,545.86Z"/><path d="M151.64,554.86c-4.34,0-26-.22-26-4.5,0-3.92,18.36-4.43,24-4.49l0,2c-12.18.13-20.06,1.46-21.79,2.49,1.84,1.09,10.62,2.5,23.78,2.5,12.31,0,20.78-1.23,23.33-2.29-2.28-.6-7.88-1.26-11.13-1.64l-2.05-.24.24-2,2.05.24c12.22,1.42,13.56,1.95,13.56,3.41C177.64,554.64,156,554.86,151.64,554.86Z"/><path d="M151.64,584.86c-4.34,0-26-.22-26-4.5,0-3.92,18.36-4.43,24-4.49l0,2c-12.18.13-20.06,1.46-21.79,2.49,1.84,1.09,10.62,2.5,23.78,2.5,12.62,0,21.21-1.3,23.51-2.37-1.05-.37-3.7-1-10.36-1.8l.24-2c11.7,1.4,12.61,2.4,12.61,3.65C177.64,584.64,156,584.86,151.64,584.86Z"/><path d="M151.64,593.86c-4.34,0-26-.22-26-4.5,0-3.92,18.36-4.43,24-4.49l0,2c-12.18.13-20.06,1.46-21.79,2.49,1.84,1.09,10.62,2.5,23.78,2.5,12.31,0,20.78-1.23,23.33-2.29-2.28-.6-7.88-1.26-11.13-1.64l-2.05-.24.24-2,2.05.24c12.22,1.42,13.56,1.95,13.56,3.41C177.64,593.64,156,593.86,151.64,593.86Z"/><path d="M151.64,621.86c-4.34,0-26-.22-26-4.5,0-3.92,18.36-4.43,24-4.49l0,2c-12.18.13-20.06,1.46-21.79,2.49,1.84,1.09,10.62,2.5,23.78,2.5,12.62,0,21.21-1.3,23.51-2.37-1.05-.37-3.7-1-10.36-1.8l.24-2c11.7,1.4,12.61,2.4,12.61,3.65C177.64,621.64,156,621.86,151.64,621.86Z"/><path d="M151.64,630.86c-4.34,0-26-.22-26-4.5,0-3.92,18.36-4.43,24-4.49l0,2c-12.18.13-20.06,1.46-21.79,2.49,1.84,1.09,10.62,2.5,23.78,2.5,12.31,0,20.78-1.23,23.33-2.29-2.28-.6-7.88-1.26-11.13-1.64l-2.05-.24.24-2,2.05.24c12.22,1.42,13.56,1.95,13.56,3.41C177.64,630.64,156,630.86,151.64,630.86Z"/><path d="M151.64,659.86c-4.34,0-26-.22-26-4.5,0-3.92,18.36-4.43,24-4.49l0,2c-12.18.13-20.06,1.46-21.79,2.49,1.84,1.09,10.62,2.5,23.78,2.5,12.62,0,21.21-1.3,23.51-2.37-1.05-.37-3.7-1-10.36-1.8l.24-2c11.7,1.4,12.61,2.4,12.61,3.65C177.64,659.64,156,659.86,151.64,659.86Z"/><path d="M151.64,668.86c-4.34,0-26-.22-26-4.5,0-3.92,18.36-4.43,24-4.49l0,2c-12.18.13-20.06,1.46-21.79,2.49,1.84,1.09,10.62,2.5,23.78,2.5,12.31,0,20.78-1.23,23.33-2.29-2.28-.6-7.88-1.26-11.13-1.64l-2.05-.24.24-2,2.05.24c12.22,1.42,13.56,1.95,13.56,3.41C177.64,668.64,156,668.86,151.64,668.86Z"/><path class="cls-1" d="M12,89.84a12,12,0,1,1,12-12A12,12,0,0,1,12,89.84Zm0-22a10,10,0,1,0,10,10A10,10,0,0,0,12,67.84Z"/><path class="cls-1" d="M55.14,402.36h-26v-26h26Zm-24-2h22v-22h-22Z"/><path class="cls-1" d="M303.12,36.71,285.78,17.33,305.16,0l17.33,19.38ZM288.61,17.49l14.66,16.4,16.4-14.67L305,2.82Z"/><rect class="cls-2" x="266.14" y="232.36" width="251" height="114"/><path class="cls-3" d="M292,308.77a138.41,138.41,0,0,1,50-5c17.44,1.49,34.3,6.72,51.52,9.58a305.1,305.1,0,0,0,47.91,4.14c13.87.09,30.84,1.19,43.13-6.39,1.64-1,.13-3.61-1.52-2.59-7.14,4.41-15.29,5.12-23.48,5.56s-16.53.55-24.81.3a299,299,0,0,1-49.83-5.63c-15.51-3.09-30.82-7.34-46.68-8.24a141.47,141.47,0,0,0-47.06,5.42,1.49,1.49,0,0,0-1,1.88,1.51,1.51,0,0,0,1.78,1Z"/><path class="cls-3" d="M292,277.77a138.41,138.41,0,0,1,50-5c17.44,1.49,34.3,6.72,51.52,9.58a305.1,305.1,0,0,0,47.91,4.14c13.87.09,30.84,1.19,43.13-6.39,1.64-1,.13-3.61-1.52-2.59-7.14,4.41-15.29,5.12-23.48,5.56s-16.53.55-24.81.3a299,299,0,0,1-49.83-5.63c-15.51-3.09-30.82-7.34-46.68-8.24a141.47,141.47,0,0,0-47.06,5.42,1.49,1.49,0,0,0-1,1.88,1.51,1.51,0,0,0,1.78,1Z"/><path class="cls-4" d="M597.64,542.47V661.59a21.28,21.28,0,0,1-21.27,21.27H415.53Z"/><path class="cls-4" d="M597.64,90.13V203.94L385.31,68.86H576.37a21.26,21.26,0,0,1,21.27,21.26Z"/><rect class="cls-1" x="650.25" y="326.08" width="2" height="357.65"/><ellipse class="cls-1" cx="651.64" cy="564.08" rx="39" ry="89"/><ellipse class="cls-1" cx="651.64" cy="361.08" rx="39" ry="89"/><path class="cls-1" d="M652.6,288.37l-1.92-.58c.12-.4,11.88-40.7-7.43-66.63-10.9-14.65-29.61-22.08-55.61-22.08v-2c26.67,0,45.92,7.7,57.22,22.89C664.77,246.72,652.72,288,652.6,288.37Z"/><circle class="cls-2" cx="587.64" cy="198.08" r="25"/><circle class="cls-5" cx="587.41" cy="197.36" r="7.66"/></svg>